Amstevar-Italic.ufo
<glyph name="five" format="1">
  <advance width="930.0"/>
  <unicode hex="0035"/>
  <outline>
    <contour>
      <point x="-145" y="72" type="qcurve" smooth="yes"/>
      <point x="-145" y="158"/>
      <point x="-47" y="271"/>
      <point x="28" y="299" type="qcurve"/>
      <point x="82" y="245" type="line"/>
      <point x="82" y="225" type="line"/>
      <point x="48" y="225"/>
      <point x="-19" y="150"/>
      <point x="-19" y="106" type="qcurve" smooth="yes"/>
      <point x="-19" y="48"/>
      <point x="92" y="-50"/>
      <point x="202" y="-50" type="qcurve" smooth="yes"/>
      <point x="394" y="-50"/>
      <point x="629" y="261"/>
      <point x="629" y="515" type="qcurve" smooth="yes"/>
      <point x="629" y="710"/>
      <point x="429" y="863"/>
      <point x="275" y="815" type="qcurve" smooth="yes"/>
      <point x="162" y="780" type="line"/>
      <point x="130" y="850" type="line"/>
      <point x="307" y="1467" type="line"/>
      <point x="339" y="1500" type="line"/>
      <point x="948" y="1500" type="line"/>
      <point x="907" y="1324" type="line"/>
      <point x="383" y="1324" type="line"/>
      <point x="372" y="1313" type="line"/>
      <point x="319" y="1123"/>
      <point x="263" y="934"/>
      <point x="221" y="886" type="qcurve"/>
      <point x="404" y="950" type="line"/>
      <point x="485" y="953" type="line"/>
      <point x="621" y="943"/>
      <point x="829" y="747"/>
      <point x="829" y="563" type="qcurve" smooth="yes"/>
      <point x="829" y="245"/>
      <point x="442" y="-154"/>
      <point x="200" y="-154" type="qcurve" smooth="yes"/>
      <point x="40" y="-154"/>
      <point x="-145" y="-23"/>
    </contour>
  </outline>
</glyph>
<glyph name="greater" format="1">
  <advance width="694.0"/>
  <unicode hex="003E"/>
  <outline>
    <contour>
      <point x="673" y="587" type="qcurve"/>
      <point x="673" y="587"/>
      <point x="154" y="261"/>
      <point x="78" y="216" type="qcurve" smooth="yes"/>
      <point x="3" y="172"/>
      <point x="-57" y="268"/>
      <point x="11" y="318" type="qcurve" smooth="yes"/>
      <point x="169" y="435"/>
      <point x="436" y="631"/>
      <point x="436" y="631" type="qcurve"/>
      <point x="436" y="631"/>
      <point x="288" y="861"/>
      <point x="206" y="1013" type="qcurve" smooth="yes"/>
      <point x="170" y="1078"/>
      <point x="279" y="1148"/>
      <point x="325" y="1086" type="qcurve" smooth="yes"/>
      <point x="370" y="1024"/>
      <point x="673" y="587"/>
    </contour>
  </outline>
</glyph>
<glyph name="question" format="1">
  <advance width="934.0"/>
  <unicode hex="003F"/>
  <outline>
    <contour>
      <point x="153" y="1234" type="qcurve" smooth="yes"/>
      <point x="181" y="1377"/>
      <point x="445" y="1540"/>
      <point x="649" y="1540" type="qcurve" smooth="yes"/>
      <point x="820" y="1540"/>
      <point x="1021" y="1395"/>
      <point x="1021" y="1256" type="qcurve" smooth="yes"/>
      <point x="1021" y="1112"/>
      <point x="833" y="881"/>
      <point x="617" y="737" type="qcurve" smooth="yes"/>
      <point x="544" y="688"/>
      <point x="415" y="597"/>
      <point x="393" y="522" type="qcurve" smooth="yes"/>
      <point x="367" y="435" type="line"/>
      <point x="267" y="435" type="line"/>
      <point x="278" y="519" type="line" smooth="yes"/>
      <point x="288" y="593"/>
      <point x="425" y="762"/>
      <point x="540" y="842" type="qcurve" smooth="yes"/>
      <point x="678" y="938"/>
      <point x="835" y="1125"/>
      <point x="835" y="1233" type="qcurve" smooth="yes"/>
      <point x="835" y="1325"/>
      <point x="712" y="1429"/>
      <point x="595" y="1429" type="qcurve" smooth="yes"/>
      <point x="473" y="1429"/>
      <point x="318" y="1342"/>
      <point x="308" y="1289" type="qcurve" smooth="yes"/>
      <point x="302" y="1260"/>
      <point x="402" y="1204"/>
      <point x="395" y="1155" type="qcurve" smooth="yes"/>
      <point x="390" y="1115"/>
      <point x="326" y="1051"/>
      <point x="266" y="1051" type="qcurve" smooth="yes"/>
      <point x="200" y="1051"/>
      <point x="135" y="1144"/>
    </contour>
    <contour>
      <point x="156" y="124" type="qcurve" smooth="yes"/>
      <point x="156" y="179"/>
      <point x="233" y="260"/>
      <point x="293" y="260" type="qcurve" smooth="yes"/>
      <point x="352" y="260"/>
      <point x="429" y="179"/>
      <point x="429" y="124" type="qcurve" smooth="yes"/>
      <point x="429" y="70"/>
      <point x="352" y="-12"/>
      <point x="293" y="-12" type="qcurve" smooth="yes"/>
      <point x="233" y="-12"/>
      <point x="156" y="70"/>
    </contour>
  </outline>
</glyph>
<glyph name="A" format="1">
  <advance width="1367.0"/>
  <unicode hex="0041"/>
  <outline>
    <contour>
      <point x="-178.0" y="0.0" type="line"/>
      <point x="-159.0" y="100.0" type="line"/>
      <point x="25.0" y="125.0" type="line"/>
      <point x="352.0" y="660.0" type="line"/>
      <point x="907" y="1531" type="line"/>
      <point x="1027" y="1513" type="line"/>
      <point x="1068" y="655" type="line"/>
      <point x="1100" y="120" type="line"/>
      <point x="1267" y="100" type="line"/>
      <point x="1248" y="0" type="line"/>
      <point x="745" y="0" type="line"/>
      <point x="764" y="100" type="line"/>
      <point x="929" y="116" type="line"/>
      <point x="912" y="648" type="line"/>
      <point x="888" y="1249" type="line"/>
      <point x="859" y="1260" type="line"/>
      <point x="450.0" y="625.0" type="line"/>
      <point x="161" y="119" type="line"/>
      <point x="330.0" y="100.0" type="line"/>
      <point x="311.0" y="0.0" type="line"/>
    </contour>
    <contour>
      <point x="371" y="587" type="line"/>
      <point x="436" y="696" type="line"/>
      <point x="686" y="690" type="line"/>
      <point x="667" y="601" type="line"/>
    </contour>
    <contour>
      <point x="686" y="690" type="line"/>
      <point x="995" y="698" type="line"/>
      <point x="1007" y="599" type="line"/>
      <point x="667" y="601" type="line"/>
    </contour>
  </outline>
</glyph>
<glyph name="D" format="1">
  <advance width="1449.0"/>
  <unicode hex="0044"/>
  <outline>
    <contour>
      <point x="-66" y="0" type="line"/>
      <point x="-47" y="100" type="line"/>
      <point x="149" y="125" type="line"/>
      <point x="267" y="754" type="line"/>
      <point x="376" y="1362" type="line"/>
      <point x="173" y="1386" type="line"/>
      <point x="186" y="1500" type="line"/>
      <point x="784" y="1500" type="line" smooth="yes"/>
      <point x="1117" y="1500"/>
      <point x="1445" y="1087"/>
      <point x="1382" y="777" type="qcurve" smooth="yes"/>
      <point x="1307" y="410"/>
      <point x="836" y="0"/>
      <point x="476" y="0" type="qcurve" smooth="yes"/>
    </contour>
    <contour>
      <point x="312" y="128" type="line"/>
      <point x="342" y="122"/>
      <point x="474" y="106"/>
      <point x="542" y="106" type="qcurve" smooth="yes"/>
      <point x="804" y="106"/>
      <point x="1134" y="440"/>
      <point x="1196" y="762" type="qcurve" smooth="yes"/>
      <point x="1255" y="1065"/>
      <point x="1009" y="1375"/>
      <point x="733" y="1375" type="qcurve" smooth="yes"/>
      <point x="688" y="1375"/>
      <point x="574" y="1363"/>
      <point x="541" y="1358" type="qcurve"/>
      <point x="427" y="754" type="line"/>
    </contour>
  </outline>
</glyph>
<glyph name="G" format="1">
  <advance width="1395"/>
  <unicode hex="0047"/>
  <outline>
    <contour>
      <point x="143" y="839" type="qcurve" smooth="yes"/>
      <point x="230" y="1165"/>
      <point x="779" y="1565"/>
      <point x="1052" y="1523" type="qcurve" smooth="yes"/>
      <point x="1117" y="1513"/>
      <point x="1230" y="1482"/>
      <point x="1276" y="1462" type="qcurve"/>
      <point x="1317" y="1441" type="line"/>
      <point x="1359" y="1420" type="line"/>
      <point x="1297" y="1076" type="line"/>
      <point x="1189" y="1076" type="line"/>
      <point x="1198" y="1264" type="line"/>
      <point x="1162" y="1323"/>
      <point x="1041" y="1381"/>
      <point x="989" y="1389" type="qcurve" smooth="yes"/>
      <point x="768" y="1423"/>
      <point x="407" y="1151"/>
      <point x="330" y="842" type="qcurve" smooth="yes"/>
      <point x="257" y="552"/>
      <point x="421" y="155"/>
      <point x="617" y="121" type="qcurve" smooth="yes"/>
      <point x="751" y="98"/>
      <point x="993" y="154"/>
      <point x="1093" y="223" type="qcurve"/>
      <point x="1166" y="586" type="line"/>
      <point x="997" y="611" type="line"/>
      <point x="1009" y="712" type="line"/>
      <point x="1459" y="712" type="line"/>
      <point x="1445" y="610" type="line"/>
      <point x="1325" y="585" type="line"/>
      <point x="1245" y="162" type="line"/>
      <point x="1133" y="109" type="line"/>
      <point x="1020" y="41"/>
      <point x="744" y="-37"/>
      <point x="568" y="-16" type="qcurve" smooth="yes"/>
      <point x="300" y="16"/>
      <point x="58" y="523"/>
    </contour>
    <contour>
      <point x="666.0" y="0.0" type="move" name="bottom"/>
    </contour>
    <contour>
      <point x="958.0" y="1500.0" type="move" name="top"/>
    </contour>
  </outline>
</glyph>
<glyph name="I" format="1">
  <advance width="712.0"/>
  <unicode hex="0049"/>
  <outline>
    <contour>
      <point x="-10" y="0" type="line"/>
      <point x="9" y="100" type="line"/>
      <point x="204" y="125" type="line"/>
      <point x="327" y="754" type="line"/>
      <point x="441" y="1363" type="line"/>
      <point x="239" y="1386" type="line"/>
      <point x="252" y="1500" type="line"/>
      <point x="822" y="1500" type="line"/>
      <point x="799" y="1386" type="line"/>
      <point x="605" y="1363" type="line"/>
      <point x="487" y="754" type="line"/>
      <point x="368" y="126" type="line"/>
      <point x="569" y="100" type="line"/>
      <point x="550" y="0" type="line"/>
    </contour>
    <contour>
      <point x="540.0" y="1500.0" type="move" name="top"/>
    </contour>
    <contour>
      <point x="350.0" y="0.0" type="move" name="ogonek"/>
    </contour>
    <contour>
      <point x="270.0" y="0.0" type="move" name="bottom"/>
    </contour>
  </outline>
</glyph>
<glyph name="L" format="1">
  <advance width="1104"/>
  <unicode hex="004C"/>
  <outline>
    <contour>
      <point x="-13" y="0" type="line"/>
      <point x="-3" y="100" type="line"/>
      <point x="193" y="122" type="line"/>
      <point x="316" y="754" type="line"/>
      <point x="430" y="1352" type="line"/>
      <point x="229" y="1386" type="line"/>
      <point x="242" y="1500" type="line"/>
      <point x="814" y="1500" type="line"/>
      <point x="801" y="1386" type="line"/>
      <point x="594" y="1352" type="line"/>
      <point x="476" y="754" type="line"/>
      <point x="357" y="135" type="line"/>
      <point x="388" y="108" type="line"/>
      <point x="844" y="108" type="line"/>
      <point x="1003" y="341" type="line"/>
      <point x="1114" y="341" type="line"/>
      <point x="965" y="0" type="line"/>
    </contour>
    <contour>
      <point x="539.0" y="1500.0" type="move" name="top"/>
    </contour>
    <contour>
      <point x="949.0" y="800.0" type="move" name="dot"/>
    </contour>
    <contour>
      <point x="249.0" y="0.0" type="move" name="bottom"/>
    </contour>
    <contour>
      <point x="1090" y="1500" type="move" name="caron.alt"/>
    </contour>
  </outline>
</glyph>
<glyph name="M" format="1">
  <advance width="1918"/>
  <unicode hex="004D"/>
  <outline>
    <contour>
      <point x="-56" y="0" type="line"/>
      <point x="-47" y="100" type="line"/>
      <point x="144" y="115" type="line"/>
      <point x="267" y="754" type="line"/>
      <point x="381" y="1372" type="line"/>
      <point x="198" y="1386" type="line"/>
      <point x="211" y="1500" type="line"/>
      <point x="631" y="1500" type="line"/>
      <point x="750" y="786" type="line"/>
      <point x="851" y="212" type="line"/>
      <point x="1171" y="803" type="line"/>
      <point x="1563" y="1500" type="line"/>
      <point x="1984" y="1500" type="line"/>
      <point x="1963" y="1386" type="line"/>
      <point x="1776" y="1372" type="line"/>
      <point x="1658" y="754" type="line"/>
      <point x="1539" y="115" type="line"/>
      <point x="1731" y="100" type="line"/>
      <point x="1722" y="0" type="line"/>
      <point x="1163" y="0" type="line"/>
      <point x="1172" y="100" type="line"/>
      <point x="1375" y="115" type="line"/>
      <point x="1498" y="754" type="line"/>
      <point x="1621" y="1369" type="line"/>
      <point x="1268" y="750" type="line"/>
      <point x="840" y="-8" type="line"/>
      <point x="729" y="-8" type="line"/>
      <point x="603" y="750" type="line"/>
      <point x="495" y="1356" type="line"/>
      <point x="375" y="754" type="line"/>
      <point x="256" y="115" type="line"/>
      <point x="452" y="100" type="line"/>
      <point x="433" y="0" type="line"/>
    </contour>
  </outline>
</glyph>
<glyph name="N" format="1">
  <advance width="1431.5888915351222"/>
  <unicode hex="004E"/>
  <outline>
    <contour>
      <point x="-30" y="0" type="line"/>
      <point x="-21" y="100" type="line"/>
      <point x="175" y="125" type="line"/>
      <point x="298" y="754" type="line"/>
      <point x="412" y="1362" type="line"/>
      <point x="229" y="1386" type="line"/>
      <point x="242" y="1500" type="line"/>
      <point x="639" y="1500" type="line"/>
      <point x="865" y="820" type="line"/>
      <point x="1043" y="306" type="line"/>
      <point x="1133" y="754" type="line"/>
      <point x="1248" y="1362" type="line"/>
      <point x="1047" y="1386" type="line"/>
      <point x="1063" y="1500" type="line"/>
      <point x="1567" y="1500" type="line"/>
      <point x="1551" y="1386" type="line"/>
      <point x="1357" y="1362" type="line"/>
      <point x="1239" y="754" type="line"/>
      <point x="1088" y="0" type="line"/>
      <point x="977" y="0" type="line"/>
      <point x="725" y="748" type="line"/>
      <point x="513" y="1328" type="line"/>
      <point x="403" y="754" type="line"/>
      <point x="284" y="125" type="line"/>
      <point x="475" y="100" type="line"/>
      <point x="466" y="0" type="line"/>
    </contour>
    <contour>
      <point x="890.0" y="1500.0" type="move" name="top"/>
    </contour>
    <contour>
      <point x="600.0" y="0.0" type="move" name="bottom"/>
    </contour>
  </outline>
</glyph>
<glyph name="O" format="1">
  <advance width="1528"/>
  <unicode hex="004F"/>
  <outline>
    <contour>
      <point x="143" y="846" type="qcurve" smooth="yes"/>
      <point x="228" y="1172"/>
      <point x="735" y="1562"/>
      <point x="1008" y="1519" type="qcurve" smooth="yes"/>
      <point x="1299" y="1473"/>
      <point x="1565" y="997"/>
      <point x="1477" y="656" type="qcurve" smooth="yes"/>
      <point x="1392" y="328"/>
      <point x="875" y="-58"/>
      <point x="612" y="-17" type="qcurve" smooth="yes"/>
      <point x="327" y="27"/>
      <point x="55" y="508"/>
    </contour>
    <contour>
      <point x="330" y="849" type="qcurve" smooth="yes"/>
      <point x="257" y="559"/>
      <point x="426" y="149"/>
      <point x="642" y="117" type="qcurve" smooth="yes"/>
      <point x="884" y="81"/>
      <point x="1211" y="353"/>
      <point x="1290" y="666" type="qcurve" smooth="yes"/>
      <point x="1362" y="953"/>
      <point x="1194" y="1351"/>
      <point x="976" y="1384" type="qcurve" smooth="yes"/>
      <point x="753" y="1418"/>
      <point x="407" y="1158"/>
    </contour>
    <contour>
      <point x="936.0" y="1500.0" type="move" name="top"/>
    </contour>
    <contour>
      <point x="646.0" y="0.0" type="move" name="bottom"/>
    </contour>
    <contour>
      <point x="856.0" y="0.0" type="move" name="ogonek"/>
    </contour>
    <contour>
      <point x="1346.0" y="1350.0" type="move" name="horn"/>
    </contour>
  </outline>
</glyph>
<glyph name="P" format="1">
  <advance width="1151.0"/>
  <unicode hex="0050"/>
  <outline>
    <contour>
      <point x="-61" y="0" type="line"/>
      <point x="-52" y="100" type="line"/>
      <point x="145" y="127" type="line"/>
      <point x="267" y="754" type="line"/>
      <point x="372" y="1362" type="line"/>
      <point x="189" y="1386" type="line"/>
      <point x="202" y="1500" type="line"/>
      <point x="774" y="1500" type="line" smooth="yes"/>
      <point x="991" y="1500"/>
      <point x="1199" y="1263"/>
      <point x="1157" y="1051" type="qcurve" smooth="yes"/>
      <point x="1117" y="850"/>
      <point x="808" y="599"/>
      <point x="609" y="599" type="qcurve" smooth="yes"/>
      <point x="510" y="599"/>
      <point x="362" y="620"/>
      <point x="320" y="628" type="qcurve"/>
      <point x="349" y="729" type="line"/>
      <point x="400" y="716"/>
      <point x="502" y="707"/>
      <point x="595" y="707" type="qcurve" smooth="yes"/>
      <point x="750" y="707"/>
      <point x="951" y="903"/>
      <point x="983" y="1072" type="qcurve" smooth="yes"/>
      <point x="1014" y="1227"/>
      <point x="889" y="1382"/>
      <point x="744" y="1382" type="qcurve" smooth="yes"/>
      <point x="559" y="1382" type="line"/>
      <point x="533" y="1360" type="line"/>
      <point x="429" y="764" type="line"/>
      <point x="308" y="122" type="line"/>
      <point x="508" y="100" type="line"/>
      <point x="499" y="0" type="line"/>
    </contour>
  </outline>
</glyph>
<glyph name="X" format="1">
  <advance width="1222.0"/>
  <unicode hex="0058"/>
  <outline>
    <contour>
      <point x="-153" y="0" type="line"/>
      <point x="-144" y="100" type="line"/>
      <point x="15" y="125" type="line"/>
      <point x="587" y="849" type="line"/>
      <point x="597" y="849" type="line"/>
      <point x="988" y="1370" type="line"/>
      <point x="832" y="1386" type="line"/>
      <point x="845" y="1500" type="line"/>
      <point x="1305" y="1500" type="line"/>
      <point x="1292" y="1386" type="line"/>
      <point x="1124" y="1365" type="line"/>
      <point x="636" y="757" type="line"/>
      <point x="627" y="757" type="line"/>
      <point x="151" y="120" type="line"/>
      <point x="306" y="100" type="line"/>
      <point x="297" y="0" type="line"/>
    </contour>
    <contour>
      <point x="141" y="1386" type="line"/>
      <point x="154" y="1500" type="line"/>
      <point x="639" y="1500" type="line"/>
      <point x="626" y="1386" type="line"/>
      <point x="473" y="1363" type="line"/>
      <point x="672" y="866" type="line"/>
      <point x="987" y="125" type="line"/>
      <point x="1142" y="100" type="line"/>
      <point x="1133" y="0" type="line"/>
      <point x="639" y="0" type="line"/>
      <point x="648" y="100" type="line"/>
      <point x="803" y="125" type="line"/>
      <point x="548" y="742" type="line"/>
      <point x="289" y="1365" type="line"/>
    </contour>
  </outline>
</glyph>
<glyph name="Y" format="1">
  <advance width="1149.0"/>
  <unicode hex="0059"/>
  <outline>
    <contour>
      <point x="142" y="1386" type="line"/>
      <point x="155" y="1500" type="line"/>
      <point x="633" y="1500" type="line"/>
      <point x="620" y="1386" type="line"/>
      <point x="467" y="1361" type="line"/>
      <point x="562" y="1055" type="line"/>
      <point x="660" y="783" type="line"/>
      <point x="871" y="1078" type="line"/>
      <point x="1068" y="1368" type="line"/>
      <point x="894" y="1386" type="line"/>
      <point x="907" y="1500" type="line"/>
      <point x="1369" y="1500" type="line"/>
      <point x="1356" y="1386" type="line"/>
      <point x="1208" y="1369" type="line"/>
      <point x="945" y="1011" type="line"/>
      <point x="693" y="652" type="line"/>
      <point x="594" y="125" type="line"/>
      <point x="788" y="100" type="line"/>
      <point x="779" y="0" type="line"/>
      <point x="217" y="0" type="line"/>
      <point x="226" y="100" type="line"/>
      <point x="431" y="125" type="line"/>
      <point x="533" y="647" type="line"/>
      <point x="426" y="976" type="line"/>
      <point x="284" y="1370" type="line"/>
    </contour>
    <contour>
      <point x="775.0" y="1500.0" type="move" name="top"/>
    </contour>
    <contour>
      <point x="485.0" y="0.0" type="move" name="bottom"/>
    </contour>
  </outline>
</glyph>
<glyph name="underscore" format="1">
  <advance width="1448.0"/>
  <unicode hex="005F"/>
  <outline>
    <contour>
      <point x="-243" y="-480" type="line"/>
      <point x="-216" y="-342" type="line"/>
      <point x="533" y="-336" type="line"/>
      <point x="1272" y="-342" type="line"/>
      <point x="1245" y="-480" type="line"/>
      <point x="502" y="-496" type="line"/>
    </contour>
  </outline>
</glyph>
<glyph name="grave" format="1">
  <advance width="1024.0"/>
  <unicode hex="0060"/>
  <outline>
    <contour>
      <point x="428" y="1381" type="qcurve" smooth="yes"/>
      <point x="435" y="1416"/>
      <point x="506" y="1454"/>
      <point x="540" y="1454" type="qcurve" smooth="yes"/>
      <point x="577" y="1454"/>
      <point x="640" y="1392"/>
      <point x="667" y="1355" type="qcurve" smooth="yes"/>
      <point x="834" y="1128" type="line"/>
      <point x="745" y="1052" type="line"/>
      <point x="483" y="1259" type="line" smooth="yes"/>
      <point x="447" y="1287"/>
      <point x="419" y="1334"/>
    </contour>
  </outline>
</glyph>
<glyph name="a" format="1">
  <advance width="1060"/>
  <unicode hex="0061"/>
  <outline>
    <contour>
      <point x="68" y="248" type="qcurve" smooth="yes"/>
      <point x="68" y="548"/>
      <point x="502" y="991"/>
      <point x="712" y="991" type="qcurve" smooth="yes"/>
      <point x="730" y="991"/>
      <point x="785" y="978"/>
      <point x="805" y="967" type="qcurve"/>
      <point x="884" y="1040" type="line"/>
      <point x="930" y="1040" type="line"/>
      <point x="993" y="901" type="line"/>
      <point x="869" y="367" type="line"/>
      <point x="833" y="127" type="line"/>
      <point x="874" y="18" type="line"/>
      <point x="710" y="-9" type="line"/>
      <point x="643" y="150" type="line"/>
      <point x="559" y="78"/>
      <point x="360" y="-10"/>
      <point x="289" y="-10" type="qcurve" smooth="yes"/>
      <point x="172" y="-10"/>
      <point x="68" y="139"/>
    </contour>
    <contour>
      <point x="233" y="300" type="qcurve" smooth="yes"/>
      <point x="233" y="225"/>
      <point x="297" y="127"/>
      <point x="366" y="127" type="qcurve" smooth="yes"/>
      <point x="484" y="127"/>
      <point x="705" y="314"/>
      <point x="741" y="491" type="qcurve" smooth="yes"/>
      <point x="801" y="786" type="line"/>
      <point x="798" y="826"/>
      <point x="722" y="852"/>
      <point x="681" y="852" type="qcurve" smooth="yes"/>
      <point x="481" y="852"/>
      <point x="233" y="533"/>
    </contour>
    <contour>
      <point x="640" y="1000" type="move" name="top"/>
    </contour>
    <contour>
      <point x="440" y="0" type="move" name="bottom"/>
    </contour>
    <contour>
      <point x="760" y="0" type="move" name="ogonek"/>
    </contour>
  </outline>
</glyph>
<glyph name="c" format="1">
  <advance width="938"/>
  <unicode hex="0063"/>
  <outline>
    <contour>
      <point x="90" y="503" type="qcurve" smooth="yes"/>
      <point x="34" y="274"/>
      <point x="210" y="-18"/>
      <point x="382" y="-25" type="qcurve" smooth="yes"/>
      <point x="549" y="-32"/>
      <point x="815" y="133"/>
      <point x="879" y="219" type="qcurve"/>
      <point x="879" y="248" type="line"/>
      <point x="821" y="312" type="line"/>
      <point x="759" y="223"/>
      <point x="578" y="112"/>
      <point x="463" y="112" type="qcurve" smooth="yes"/>
      <point x="310" y="112"/>
      <point x="211" y="334"/>
      <point x="245" y="483" type="qcurve" smooth="yes"/>
      <point x="293" y="695"/>
      <point x="506" y="901"/>
      <point x="643" y="901" type="qcurve" smooth="yes"/>
      <point x="697" y="901"/>
      <point x="761" y="864"/>
      <point x="761" y="839" type="qcurve" smooth="yes"/>
      <point x="761" y="634" type="line"/>
      <point x="769" y="635" type="line" smooth="yes"/>
      <point x="838" y="644"/>
      <point x="927" y="772"/>
      <point x="927" y="870" type="qcurve" smooth="yes"/>
      <point x="927" y="925"/>
      <point x="761" y="1030"/>
      <point x="698" y="1030" type="qcurve" smooth="yes"/>
      <point x="514" y="1030"/>
      <point x="148" y="740"/>
    </contour>
  </outline>
</glyph>
<glyph name="i" format="1">
  <advance width="556"/>
  <unicode hex="0069"/>
  <outline>
    <contour>
      <point x="151" y="-21" type="line"/>
      <point x="110" y="68" type="line"/>
      <point x="204" y="527" type="line"/>
      <point x="275" y="820" type="line"/>
      <point x="94" y="818" type="line"/>
      <point x="96" y="915" type="line"/>
      <point x="349" y="1014" type="line"/>
      <point x="419" y="1014" type="line"/>
      <point x="488" y="898" type="line"/>
      <point x="417" y="755" type="line"/>
      <point x="293" y="140" type="line"/>
      <point x="514" y="164" type="line"/>
      <point x="514" y="76" type="line"/>
    </contour>
    <contour>
      <point x="326" y="1337" type="qcurve" smooth="yes"/>
      <point x="332" y="1396"/>
      <point x="394" y="1460"/>
      <point x="447" y="1460" type="qcurve" smooth="yes"/>
      <point x="496" y="1460"/>
      <point x="550" y="1392"/>
      <point x="544" y="1337" type="qcurve" smooth="yes"/>
      <point x="538" y="1278"/>
      <point x="476" y="1214"/>
      <point x="423" y="1214" type="qcurve" smooth="yes"/>
      <point x="374" y="1214"/>
      <point x="320" y="1282"/>
    </contour>
    <contour>
      <point x="225" y="0" type="move" name="ogonek"/>
    </contour>
    <contour>
      <point x="180" y="0" type="move" name="bottom"/>
    </contour>
  </outline>
</glyph>
<glyph name="r" format="1">
  <advance width="783"/>
  <unicode hex="0072"/>
  <outline>
    <contour>
      <point x="126" y="-14" type="line"/>
      <point x="85" y="75" type="line"/>
      <point x="190" y="527" type="line"/>
      <point x="228" y="822" type="line"/>
      <point x="86" y="818" type="line"/>
      <point x="88" y="915" type="line"/>
      <point x="307" y="1001" type="line"/>
      <point x="363" y="1001" type="line"/>
      <point x="380" y="807" type="line"/>
      <point x="395" y="741" type="line"/>
      <point x="269" y="137" type="line"/>
      <point x="409" y="134" type="line"/>
      <point x="409" y="46" type="line"/>
    </contour>
    <contour>
      <point x="665" y="648" type="line"/>
      <point x="665" y="845" type="line"/>
      <point x="567" y="845"/>
      <point x="389" y="737"/>
      <point x="333" y="650" type="qcurve"/>
      <point x="312" y="720" type="line"/>
      <point x="385" y="847"/>
      <point x="607" y="1013"/>
      <point x="718" y="1013" type="qcurve" smooth="yes"/>
      <point x="773" y="1013"/>
      <point x="838" y="980"/>
      <point x="838" y="937" type="qcurve" smooth="yes"/>
      <point x="838" y="853"/>
      <point x="756" y="648"/>
      <point x="700" y="648" type="qcurve" smooth="yes"/>
    </contour>
  </outline>
</glyph>
<glyph name="t" format="1">
  <advance width="606"/>
  <unicode hex="0074"/>
  <outline>
    <contour>
      <point x="161" y="-15" type="line"/>
      <point x="87" y="117" type="line"/>
      <point x="147" y="359" type="line"/>
      <point x="241" y="830" type="line"/>
      <point x="80" y="842" type="line"/>
      <point x="95" y="916" type="line"/>
      <point x="205" y="968"/>
      <point x="340" y="1168"/>
      <point x="374" y="1237" type="qcurve"/>
      <point x="421" y="1237" type="line"/>
      <point x="447" y="1197" type="line"/>
      <point x="342" y="567" type="line"/>
      <point x="270" y="134" type="line"/>
      <point x="456" y="154" type="line"/>
      <point x="456" y="66" type="line"/>
    </contour>
    <contour>
      <point x="285" y="849" type="line"/>
      <point x="330" y="980" type="line"/>
      <point x="635" y="980" type="line"/>
      <point x="635" y="875" type="line"/>
    </contour>
    <contour>
      <point x="180" y="0" type="move" name="bottom"/>
    </contour>
    <contour>
      <point x="798" y="1500" type="move" name="caron.alt"/>
    </contour>
  </outline>
</glyph>
<glyph name="u" format="1">
  <advance width="1171"/>
  <unicode hex="0075"/>
  <outline>
    <contour>
      <point x="819" y="-15" type="line"/>
      <point x="777" y="76" type="line"/>
      <point x="788" y="278" type="line"/>
      <point x="903" y="911" type="line"/>
      <point x="872" y="994" type="line"/>
      <point x="1036" y="1021" type="line"/>
      <point x="1078" y="942" type="line"/>
      <point x="961" y="362" type="line"/>
      <point x="935" y="134" type="line"/>
      <point x="1071" y="134" type="line"/>
      <point x="1073" y="47" type="line"/>
    </contour>
    <contour>
      <point x="154" y="272" type="qcurve" smooth="yes"/>
      <point x="265" y="822" type="line"/>
      <point x="123" y="819" type="line"/>
      <point x="125" y="915" type="line"/>
      <point x="344" y="1002" type="line"/>
      <point x="389" y="1002" type="line"/>
      <point x="431" y="923" type="line"/>
      <point x="324" y="312" type="line" smooth="yes"/>
      <point x="309" y="229"/>
      <point x="351" y="137"/>
      <point x="428" y="137" type="qcurve" smooth="yes"/>
      <point x="526" y="137"/>
      <point x="758" y="298"/>
      <point x="815" y="368" type="qcurve"/>
      <point x="836" y="278" type="line"/>
      <point x="771" y="179"/>
      <point x="486" y="-7"/>
      <point x="368" y="-7" type="qcurve" smooth="yes"/>
      <point x="259" y="-7"/>
      <point x="126" y="135"/>
    </contour>
    <contour>
      <point x="670" y="1000" type="move" name="top"/>
    </contour>
    <contour>
      <point x="880" y="0" type="move" name="ogonek"/>
    </contour>
    <contour>
      <point x="470" y="0" type="move" name="bottom"/>
    </contour>
    <contour>
      <point x="1040" y="1000" type="move" name="horn"/>
    </contour>
  </outline>
</glyph>
<glyph name="braceright" format="1">
  <advance width="693.0"/>
  <unicode hex="007D"/>
  <outline>
    <contour>
      <point x="-209" y="-484" type="qcurve"/>
      <point x="-187" y="-372" type="line"/>
      <point x="-136" y="-374"/>
      <point x="-93" y="-374"/>
      <point x="-44" y="-374" type="qcurve" smooth="yes"/>
      <point x="38" y="-374"/>
      <point x="153" y="-278"/>
      <point x="172" y="-180" type="qcurve" smooth="yes"/>
      <point x="192" y="-78"/>
      <point x="154" y="223"/>
      <point x="172" y="314" type="qcurve" smooth="yes"/>
      <point x="186" y="384"/>
      <point x="264" y="516"/>
      <point x="334" y="550" type="qcurve"/>
      <point x="287" y="571"/>
      <point x="246" y="697"/>
      <point x="265" y="792" type="qcurve" smooth="yes"/>
      <point x="283" y="883"/>
      <point x="430" y="1094"/>
      <point x="449" y="1196" type="qcurve" smooth="yes"/>
      <point x="469" y="1294"/>
      <point x="396" y="1388"/>
      <point x="314" y="1388" type="qcurve" smooth="yes"/>
      <point x="265" y="1388"/>
      <point x="202" y="1388"/>
      <point x="149" y="1386" type="qcurve"/>
      <point x="172" y="1500" type="line"/>
      <point x="209" y="1503"/>
      <point x="293" y="1510"/>
      <point x="364" y="1510" type="qcurve" smooth="yes"/>
      <point x="520" y="1510"/>
      <point x="658" y="1343"/>
      <point x="627" y="1184" type="qcurve" smooth="yes"/>
      <point x="604" y="1066"/>
      <point x="429" y="834"/>
      <point x="406" y="716" type="qcurve" smooth="yes"/>
      <point x="395" y="660"/>
      <point x="433" y="603"/>
      <point x="488" y="599" type="qcurve" smooth="yes"/>
      <point x="617" y="589" type="line"/>
      <point x="596" y="481" type="line"/>
      <point x="361" y="481" type="line"/>
      <point x="339" y="364" type="line"/>
      <point x="316" y="246"/>
      <point x="377" y="-50"/>
      <point x="354" y="-168" type="qcurve" smooth="yes"/>
      <point x="323" y="-327"/>
      <point x="115" y="-495"/>
      <point x="-41" y="-495" type="qcurve" smooth="yes"/>
      <point x="-112" y="-495"/>
      <point x="-173" y="-487"/>
    </contour>
  </outline>
</glyph>
<glyph name="exclamdown" format="1">
  <advance width="604.0"/>
  <unicode hex="00A1"/>
  <outline>
    <contour>
      <point x="513" y="1212" type="qcurve" smooth="yes"/>
      <point x="513" y="1157"/>
      <point x="436" y="1076"/>
      <point x="376" y="1076" type="qcurve" smooth="yes"/>
      <point x="317" y="1076"/>
      <point x="240" y="1157"/>
      <point x="240" y="1212" type="qcurve" smooth="yes"/>
      <point x="240" y="1266"/>
      <point x="317" y="1348"/>
      <point x="376" y="1348" type="qcurve" smooth="yes"/>
      <point x="436" y="1348"/>
      <point x="513" y="1266"/>
    </contour>
    <contour>
      <point x="219" y="-85" type="line" smooth="yes"/>
      <point x="208" y="-153"/>
      <point x="152" y="-240"/>
      <point x="97" y="-241" type="qcurve" smooth="yes"/>
      <point x="42" y="-242"/>
      <point x="16" y="-155"/>
      <point x="31" y="-86" type="qcurve" smooth="yes"/>
      <point x="103" y="228" type="line"/>
      <point x="187" y="536" type="line"/>
      <point x="271" y="901" type="line"/>
      <point x="363" y="886" type="line"/>
      <point x="307" y="536" type="line"/>
      <point x="269" y="228" type="line"/>
    </contour>
  </outline>
</glyph>
<glyph name="dieresis" format="1">
  <advance width="1024"/>
  <unicode hex="00A8"/>
  <outline>
    <contour>
      <point x="784" y="1327" type="qcurve" smooth="yes"/>
      <point x="784" y="1382"/>
      <point x="844" y="1441"/>
      <point x="900" y="1441" type="qcurve" smooth="yes"/>
      <point x="953" y="1441"/>
      <point x="1016" y="1378"/>
      <point x="1016" y="1327" type="qcurve" smooth="yes"/>
      <point x="1016" y="1273"/>
      <point x="957" y="1214"/>
      <point x="900" y="1214" type="qcurve" smooth="yes"/>
      <point x="847" y="1214"/>
      <point x="784" y="1276"/>
    </contour>
    <contour>
      <point x="324" y="1327" type="qcurve" smooth="yes"/>
      <point x="324" y="1382"/>
      <point x="384" y="1441"/>
      <point x="440" y="1441" type="qcurve" smooth="yes"/>
      <point x="493" y="1441"/>
      <point x="556" y="1378"/>
      <point x="556" y="1327" type="qcurve" smooth="yes"/>
      <point x="556" y="1273"/>
      <point x="497" y="1214"/>
      <point x="440" y="1214" type="qcurve" smooth="yes"/>
      <point x="387" y="1214"/>
      <point x="324" y="1276"/>
    </contour>
  </outline>
</glyph>
<glyph name="registered" format="1">
  <advance width="2048"/>
  <unicode hex="00AE"/>
  <outline>
    <contour>
      <point x="101" y="685" type="qcurve" smooth="yes"/>
      <point x="101" y="1061"/>
      <point x="622" y="1570"/>
      <point x="1026" y="1570" type="qcurve" smooth="yes"/>
      <point x="1428" y="1570"/>
      <point x="1947" y="1087"/>
      <point x="1947" y="706" type="qcurve" smooth="yes"/>
      <point x="1947" y="288"/>
      <point x="1435" y="-242"/>
      <point x="1038" y="-242" type="qcurve" smooth="yes"/>
      <point x="629" y="-242"/>
      <point x="101" y="276"/>
    </contour>
    <contour>
      <point x="243" y="682" type="qcurve" smooth="yes"/>
      <point x="243" y="325"/>
      <point x="714" y="-141"/>
      <point x="1055" y="-141" type="qcurve" smooth="yes"/>
      <point x="1386" y="-141"/>
      <point x="1805" y="351"/>
      <point x="1805" y="699" type="qcurve" smooth="yes"/>
      <point x="1805" y="1017"/>
      <point x="1362" y="1469"/>
      <point x="1005" y="1469" type="qcurve" smooth="yes"/>
      <point x="668" y="1469"/>
      <point x="243" y="1008"/>
    </contour>
    <contour>
      <point x="595" y="176" type="line"/>
      <point x="585" y="266" type="line"/>
      <point x="702" y="290" type="line"/>
      <point x="713" y="723" type="line"/>
      <point x="702" y="1088" type="line"/>
      <point x="575" y="1111" type="line"/>
      <point x="575" y="1209" type="line"/>
      <point x="1048" y="1209" type="line" smooth="yes"/>
      <point x="1206" y="1209"/>
      <point x="1359" y="1082"/>
      <point x="1359" y="968" type="qcurve" smooth="yes"/>
      <point x="1359" y="841"/>
      <point x="1172" y="664"/>
      <point x="1046" y="664" type="qcurve" smooth="yes"/>
      <point x="995" y="664"/>
      <point x="855" y="673"/>
      <point x="831" y="673" type="qcurve"/>
      <point x="831" y="758" type="line"/>
      <point x="988" y="758" type="line" smooth="yes"/>
      <point x="1107" y="758"/>
      <point x="1191" y="868"/>
      <point x="1191" y="959" type="qcurve" smooth="yes"/>
      <point x="1191" y="1039"/>
      <point x="1099" y="1108"/>
      <point x="996" y="1108" type="qcurve" smooth="yes"/>
      <point x="889" y="1108" type="line"/>
      <point x="868" y="1095" type="line"/>
      <point x="855" y="723" type="line"/>
      <point x="866" y="290" type="line"/>
      <point x="998" y="266" type="line"/>
      <point x="998" y="176" type="line"/>
    </contour>
    <contour>
      <point x="949" y="710" type="line"/>
      <point x="1100" y="738" type="line"/>
      <point x="1350" y="393" type="line" smooth="yes"/>
      <point x="1421" y="295"/>
      <point x="1516" y="266"/>
      <point x="1558" y="266" type="qcurve"/>
      <point x="1558" y="176" type="line"/>
      <point x="1367" y="176" type="line"/>
      <point x="1325" y="190" type="line"/>
    </contour>
  </outline>
</glyph>
<glyph name="acute" format="1">
  <advance width="1024"/>
  <unicode hex="00B4"/>
  <outline>
    <contour>
      <point x="923" y="1440" type="qcurve" smooth="yes"/>
      <point x="923" y="1400"/>
      <point x="852" y="1337"/>
      <point x="803" y="1310" type="qcurve" smooth="yes"/>
      <point x="480" y="1132" type="line"/>
      <point x="415" y="1218" type="line"/>
      <point x="681" y="1450" type="line" smooth="yes"/>
      <point x="725" y="1488"/>
      <point x="793" y="1534"/>
      <point x="833" y="1534" type="qcurve" smooth="yes"/>
      <point x="873" y="1534"/>
      <point x="923" y="1480"/>
    </contour>
  </outline>
</glyph>
<glyph name="cedilla" format="1">
  <advance width="1024"/>
  <unicode hex="00B8"/>
  <outline>
    <contour>
      <point x="462" y="-4" type="line"/>
      <point x="368" y="-139" type="line"/>
      <point x="385" y="-135"/>
      <point x="435" y="-126"/>
      <point x="465" y="-126" type="qcurve" smooth="yes"/>
      <point x="545" y="-126"/>
      <point x="638" y="-234"/>
      <point x="619" y="-325" type="qcurve" smooth="yes"/>
      <point x="600" y="-416"/>
      <point x="445" y="-536"/>
      <point x="335" y="-536" type="qcurve" smooth="yes"/>
      <point x="255" y="-536"/>
      <point x="105" y="-490"/>
      <point x="53" y="-450" type="qcurve"/>
      <point x="118" y="-341" type="line"/>
      <point x="145" y="-364"/>
      <point x="259" y="-412"/>
      <point x="317" y="-412" type="qcurve" smooth="yes"/>
      <point x="375" y="-412"/>
      <point x="449" y="-366"/>
      <point x="459" y="-316" type="qcurve" smooth="yes"/>
      <point x="469" y="-266"/>
      <point x="419" y="-226"/>
      <point x="367" y="-226" type="qcurve" smooth="yes"/>
      <point x="336" y="-226"/>
      <point x="285" y="-234"/>
      <point x="267" y="-240" type="qcurve"/>
      <point x="215" y="-160" type="line"/>
      <point x="369" y="51" type="line"/>
    </contour>
  </outline>
</glyph>
<glyph name="AE" format="1">
  <advance width="1795"/>
  <unicode hex="00C6"/>
  <outline>
    <contour>
      <point x="371" y="587" type="line"/>
      <point x="436" y="696" type="line"/>
      <point x="686" y="690" type="line"/>
      <point x="667" y="601" type="line"/>
    </contour>
    <contour>
      <point x="686" y="690" type="line"/>
      <point x="995" y="698" type="line"/>
      <point x="1007" y="599" type="line"/>
      <point x="667" y="601" type="line"/>
    </contour>
    <contour>
      <point x="547" y="0" type="line"/>
      <point x="566" y="100" type="line"/>
      <point x="752" y="127" type="line"/>
      <point x="880" y="783" type="line"/>
      <point x="988" y="1362" type="line"/>
      <point x="596" y="1386" type="line"/>
      <point x="608" y="1500" type="line"/>
      <point x="1786" y="1500" type="line"/>
      <point x="1748" y="1152" type="line"/>
      <point x="1649" y="1152" type="line"/>
      <point x="1642" y="1382" type="line"/>
      <point x="1189" y="1382" type="line"/>
      <point x="1154" y="1362" type="line"/>
      <point x="1039" y="783" type="line"/>
      <point x="925" y="177" type="line"/>
      <point x="975" y="108" type="line"/>
      <point x="1471" y="108" type="line"/>
      <point x="1562" y="378" type="line"/>
      <point x="1662" y="378" type="line"/>
      <point x="1573" y="0" type="line"/>
    </contour>
    <contour>
      <point x="960" y="768" type="line"/>
      <point x="979" y="844" type="line"/>
      <point x="1392" y="854" type="line"/>
      <point x="1451" y="1024" type="line"/>
      <point x="1561" y="1024" type="line"/>
      <point x="1476" y="588" type="line"/>
      <point x="1376" y="588" type="line"/>
      <point x="1380" y="738" type="line"/>
    </contour>
    <contour>
      <point x="901" y="1407" type="line"/>
      <point x="450.0" y="625.0" type="line"/>
      <point x="161" y="119" type="line"/>
      <point x="330.0" y="100.0" type="line"/>
      <point x="311.0" y="0.0" type="line"/>
      <point x="-178.0" y="0.0" type="line"/>
      <point x="-159.0" y="100.0" type="line"/>
      <point x="25.0" y="125.0" type="line"/>
      <point x="352.0" y="660.0" type="line"/>
      <point x="781" y="1425" type="line"/>
    </contour>
    <contour>
      <point x="1200" y="1500" type="move" name="top"/>
    </contour>
  </outline>
</glyph>
<glyph name="oslash" format="1">
  <advance width="1050"/>
  <unicode hex="00F8"/>
  <outline>
    <component base="o"/>
    <component base="diagonalbaro" xOffset="274"/>
    <contour>
      <point x="630" y="1000" type="move" name="top"/>
    </contour>
  </outline>
</glyph>
<glyph name="thorn" format="1">
  <advance width="1023"/>
  <unicode hex="00FE"/>
  <outline>
    <contour>
      <point x="267.0" y="269.0" type="line"/>
      <point x="256.0" y="208.0"/>
      <point x="313.0" y="169.0"/>
      <point x="362.0" y="169.0" type="qcurve" smooth="yes"/>
      <point x="561.0" y="169.0"/>
      <point x="809.0" y="477.0"/>
      <point x="809.0" y="716.0" type="qcurve" smooth="yes"/>
      <point x="809.0" y="791.0"/>
      <point x="748.0" y="858.0"/>
      <point x="679.0" y="858.0" type="qcurve" smooth="yes"/>
      <point x="603.0" y="858.0"/>
      <point x="419.0" y="756.0"/>
      <point x="346.0" y="691.0" type="qcurve"/>
      <point x="309.0" y="494.0" type="line"/>
    </contour>
    <contour>
      <point x="372" y="830" type="line"/>
      <point x="459" y="901"/>
      <point x="675" y="1006"/>
      <point x="757" y="1006" type="qcurve" smooth="yes"/>
      <point x="874" y="1006"/>
      <point x="978" y="877"/>
      <point x="978" y="768" type="qcurve" smooth="yes"/>
      <point x="978" y="427"/>
      <point x="541" y="30"/>
      <point x="331" y="30" type="qcurve" smooth="yes"/>
      <point x="300" y="30"/>
      <point x="248" y="41"/>
      <point x="227" y="51" type="qcurve"/>
      <point x="158" y="-316" type="line"/>
      <point x="283" y="-356" type="line"/>
      <point x="255" y="-428" type="line"/>
      <point x="74" y="-462" type="line"/>
      <point x="-13" y="-392" type="line"/>
      <point x="157" y="512" type="line"/>
      <point x="296" y="1336" type="line"/>
      <point x="192" y="1428" type="line"/>
      <point x="220" y="1500" type="line"/>
      <point x="401" y="1534" type="line"/>
      <point x="488" y="1464" type="line"/>
    </contour>
  </outline>
</glyph>
<glyph name="OE" format="1">
  <advance width="2006"/>
  <unicode hex="0152"/>
  <outline>
    <contour>
      <point x="1171" y="768" type="line"/>
      <point x="1190" y="844" type="line"/>
      <point x="1603" y="854" type="line"/>
      <point x="1662" y="1024" type="line"/>
      <point x="1772" y="1024" type="line"/>
      <point x="1687" y="588" type="line"/>
      <point x="1587" y="588" type="line"/>
      <point x="1591" y="738" type="line"/>
    </contour>
    <contour>
      <point x="1393" y="1500" type="qcurve" smooth="yes"/>
      <point x="1997" y="1500" type="line"/>
      <point x="1959" y="1152" type="line"/>
      <point x="1860" y="1152" type="line"/>
      <point x="1853" y="1382" type="line"/>
      <point x="1400" y="1382" type="line"/>
      <point x="1365" y="1362" type="line"/>
      <point x="1250" y="783" type="line"/>
      <point x="1136" y="177" type="line"/>
      <point x="1186" y="108" type="line"/>
      <point x="1682" y="108" type="line"/>
      <point x="1773" y="378" type="line"/>
      <point x="1873" y="378" type="line"/>
      <point x="1784" y="0" type="line"/>
      <point x="1049" y="0" type="line" smooth="yes"/>
      <point x="956" y="0"/>
      <point x="676" y="-34"/>
      <point x="566" y="-17" type="qcurve" smooth="yes"/>
      <point x="281" y="27"/>
      <point x="9" y="508"/>
      <point x="97" y="846" type="qcurve" smooth="yes"/>
      <point x="182" y="1172"/>
      <point x="686" y="1534"/>
      <point x="962" y="1519" type="qcurve" smooth="yes"/>
      <point x="1111" y="1511"/>
      <point x="1332" y="1500"/>
    </contour>
    <contour>
      <point x="965" y="1388" type="qcurve" smooth="yes"/>
      <point x="726" y="1401"/>
      <point x="362" y="1158"/>
      <point x="284" y="849" type="qcurve" smooth="yes"/>
      <point x="194" y="491"/>
      <point x="465" y="97"/>
      <point x="691" y="97" type="qcurve" smooth="yes"/>
      <point x="832" y="97"/>
      <point x="913" y="112"/>
      <point x="963" y="127" type="qcurve"/>
      <point x="1091" y="783" type="line"/>
      <point x="1200" y="1363" type="line"/>
      <point x="1158" y="1370"/>
      <point x="1000" y="1386"/>
    </contour>
  </outline>
</glyph>
<glyph name="florin" format="1">
  <advance width="618"/>
  <unicode hex="0192"/>
  <outline>
    <contour>
      <point x="220" y="-75" type="line" smooth="yes"/>
      <point x="202" y="-173"/>
      <point x="89" y="-309"/>
      <point x="-11" y="-309" type="qcurve" smooth="yes"/>
      <point x="-44" y="-309"/>
      <point x="-120" y="-302"/>
      <point x="-149" y="-295" type="qcurve" smooth="yes"/>
      <point x="-170" y="-290" type="line"/>
      <point x="-154" y="-183" type="line"/>
      <point x="-130" y="-190" type="line" smooth="yes"/>
      <point x="-122" y="-192"/>
      <point x="-91" y="-197"/>
      <point x="-75" y="-197" type="qcurve" smooth="yes"/>
      <point x="-6" y="-197"/>
      <point x="52" y="-112"/>
      <point x="66" y="-40" type="qcurve" smooth="yes"/>
      <point x="239" y="860" type="line"/>
      <point x="44" y="872" type="line"/>
      <point x="34" y="966" type="line"/>
      <point x="259" y="984" type="line"/>
      <point x="333" y="1304" type="line" smooth="yes"/>
      <point x="355" y="1401"/>
      <point x="466" y="1518"/>
      <point x="566" y="1518" type="qcurve" smooth="yes"/>
      <point x="599" y="1518"/>
      <point x="733" y="1506"/>
      <point x="704" y="1504" type="qcurve" smooth="yes"/>
      <point x="725" y="1499" type="line"/>
      <point x="709" y="1392" type="line"/>
      <point x="685" y="1399" type="line" smooth="yes"/>
      <point x="677" y="1401"/>
      <point x="646" y="1406"/>
      <point x="630" y="1406" type="qcurve" smooth="yes"/>
      <point x="561" y="1406"/>
      <point x="511" y="1339"/>
      <point x="489" y="1269" type="qcurve" smooth="yes"/>
      <point x="421" y="985" type="line"/>
      <point x="618" y="985" type="line"/>
      <point x="618" y="883" type="line"/>
      <point x="393" y="872" type="line"/>
    </contour>
  </outline>
</glyph>
<glyph name="caron" format="1">
  <advance width="1024"/>
  <unicode hex="02C7"/>
  <outline>
    <contour>
      <point x="628" y="1142" type="qcurve" smooth="yes"/>
      <point x="594" y="1142"/>
      <point x="556" y="1173"/>
      <point x="534" y="1215" type="qcurve" smooth="yes"/>
      <point x="382" y="1458" type="line"/>
      <point x="463" y="1531" type="line"/>
      <point x="653" y="1316" type="line"/>
      <point x="933" y="1531" type="line"/>
      <point x="1008" y="1458" type="line"/>
      <point x="754" y="1215" type="line" smooth="yes"/>
      <point x="702" y="1166"/>
      <point x="662" y="1142"/>
    </contour>
  </outline>
</glyph>
<glyph name="breve" format="1">
  <advance width="1024"/>
  <unicode hex="02D8"/>
  <outline>
    <contour>
      <point x="973" y="1511" type="line"/>
      <point x="934" y="1458"/>
      <point x="766" y="1347"/>
      <point x="664" y="1347" type="qcurve" smooth="yes"/>
      <point x="568" y="1347"/>
      <point x="444" y="1450"/>
      <point x="425" y="1512" type="qcurve"/>
      <point x="341" y="1455" type="line"/>
      <point x="344" y="1345"/>
      <point x="518" y="1191"/>
      <point x="648" y="1191" type="qcurve" smooth="yes"/>
      <point x="778" y="1191"/>
      <point x="1008" y="1360"/>
      <point x="1050" y="1458" type="qcurve"/>
    </contour>
  </outline>
</glyph>
<glyph name="hungarumlaut" format="1">
  <advance width="1024"/>
  <unicode hex="02DD"/>
  <outline>
    <contour>
      <point x="706" y="1456" type="qcurve" smooth="yes"/>
      <point x="706" y="1420"/>
      <point x="639" y="1359"/>
      <point x="594" y="1328" type="qcurve" smooth="yes"/>
      <point x="312" y="1132" type="line"/>
      <point x="246" y="1216" type="line"/>
      <point x="484" y="1450" type="line" smooth="yes"/>
      <point x="524" y="1490"/>
      <point x="586" y="1534"/>
      <point x="622" y="1534" type="qcurve" smooth="yes"/>
      <point x="658" y="1534"/>
      <point x="706" y="1492"/>
    </contour>
    <contour>
      <point x="1096" y="1456" type="qcurve" smooth="yes"/>
      <point x="1096" y="1420"/>
      <point x="1029" y="1359"/>
      <point x="984" y="1328" type="qcurve" smooth="yes"/>
      <point x="702" y="1132" type="line"/>
      <point x="636" y="1216" type="line"/>
      <point x="874" y="1450" type="line" smooth="yes"/>
      <point x="914" y="1490"/>
      <point x="976" y="1534"/>
      <point x="1012" y="1534" type="qcurve" smooth="yes"/>
      <point x="1048" y="1534"/>
      <point x="1096" y="1492"/>
    </contour>
  </outline>
</glyph>
<glyph name="dotbelowcomb" format="1">
  <advance width="0"/>
  <unicode hex="0323"/>
  <outline>
    <contour>
      <point x="-277" y="-287" type="qcurve" smooth="yes"/>
      <point x="-277" y="-230"/>
      <point x="-215" y="-169"/>
      <point x="-156" y="-169" type="qcurve" smooth="yes"/>
      <point x="-101" y="-169"/>
      <point x="-35" y="-234"/>
      <point x="-35" y="-287" type="qcurve" smooth="yes"/>
      <point x="-35" y="-344"/>
      <point x="-97" y="-405"/>
      <point x="-156" y="-405" type="qcurve" smooth="yes"/>
      <point x="-211" y="-405"/>
      <point x="-277" y="-340"/>
    </contour>
    <contour>
      <point x="-100" y="0" type="move" name="_bottom"/>
    </contour>
  </outline>
</glyph>
<glyph name="commaaccentcomb" format="1">
  <advance width="0"/>
  <unicode hex="0326"/>
  <outline>
    <contour>
      <point x="-315" y="-611" type="line"/>
      <point x="-272" y="-580"/>
      <point x="-158" y="-462"/>
      <point x="-138" y="-404" type="qcurve"/>
      <point x="-206" y="-404"/>
      <point x="-282" y="-332"/>
      <point x="-282" y="-276" type="qcurve" smooth="yes"/>
      <point x="-282" y="-221"/>
      <point x="-197" y="-140"/>
      <point x="-137" y="-140" type="qcurve" smooth="yes"/>
      <point x="-81" y="-140"/>
      <point x="5" y="-239"/>
      <point x="5" y="-319" type="qcurve" smooth="yes"/>
      <point x="5" y="-418"/>
      <point x="-166" y="-614"/>
      <point x="-264" y="-673" type="qcurve"/>
    </contour>
    <contour>
      <point x="-100" y="0" type="move" name="_bottom"/>
    </contour>
  </outline>
</glyph>
<glyph name="second" format="1">
  <advance width="984"/>
  <unicode hex="2033"/>
  <outline>
    <contour>
      <point x="144" y="965" type="line"/>
      <point x="380" y="1482" type="line" smooth="yes"/>
      <point x="400" y="1526"/>
      <point x="491" y="1573"/>
      <point x="547" y="1542" type="qcurve" smooth="yes"/>
      <point x="602" y="1512"/>
      <point x="615" y="1405"/>
      <point x="583" y="1369" type="qcurve" smooth="yes"/>
      <point x="218" y="965" type="line"/>
    </contour>
    <contour>
      <point x="544" y="965" type="line"/>
      <point x="780" y="1482" type="line" smooth="yes"/>
      <point x="800" y="1526"/>
      <point x="891" y="1573"/>
      <point x="947" y="1542" type="qcurve" smooth="yes"/>
      <point x="1002" y="1512"/>
      <point x="1015" y="1405"/>
      <point x="983" y="1369" type="qcurve" smooth="yes"/>
      <point x="618" y="965" type="line"/>
    </contour>
  </outline>
</glyph>
<glyph name="colonsign" format="1">
  <advance width="1280"/>
  <unicode hex="20A1"/>
  <outline>
    <contour>
      <point x="571" y="-149" type="line"/>
      <point x="634" y="138" type="line"/>
      <point x="645" y="133" type="line"/>
      <point x="807" y="831" type="line"/>
      <point x="919" y="762" type="line"/>
      <point x="766" y="106" type="line"/>
      <point x="779" y="101" type="line"/>
      <point x="722" y="-198" type="line"/>
    </contour>
    <contour>
      <point x="962" y="1567" type="line"/>
      <point x="1117" y="1568" type="line"/>
      <point x="1067" y="1346" type="line"/>
      <point x="1055" y="1350" type="line"/>
      <point x="919" y="762" type="line"/>
      <point x="807" y="831" type="line"/>
      <point x="934" y="1378" type="line"/>
      <point x="921" y="1383" type="line"/>
    </contour>
    <contour>
      <point x="293" y="-79" type="line"/>
      <point x="370" y="229" type="line"/>
      <point x="381" y="224" type="line"/>
      <point x="517" y="831" type="line"/>
      <point x="629" y="762" type="line"/>
      <point x="502" y="197" type="line"/>
      <point x="515" y="192" type="line"/>
      <point x="444" y="-128" type="line"/>
    </contour>
    <contour>
      <point x="672" y="1567" type="line"/>
      <point x="827" y="1568" type="line"/>
      <point x="784" y="1382" type="line"/>
      <point x="772" y="1386" type="line"/>
      <point x="629" y="762" type="line"/>
      <point x="517" y="831" type="line"/>
      <point x="643" y="1384" type="line"/>
      <point x="630" y="1389" type="line"/>
    </contour>
    <contour>
      <point x="106" y="875" type="qcurve" smooth="yes"/>
      <point x="182" y="1165"/>
      <point x="688" y="1472"/>
      <point x="946" y="1433" type="qcurve" smooth="yes"/>
      <point x="1023" y="1421"/>
      <point x="1143" y="1383"/>
      <point x="1193" y="1358" type="qcurve"/>
      <point x="1219" y="1344" type="line"/>
      <point x="1243" y="1330" type="line"/>
      <point x="1180" y="965" type="line"/>
      <point x="1072" y="965" type="line"/>
      <point x="1082" y="1174" type="line"/>
      <point x="1051" y="1233"/>
      <point x="935" y="1290"/>
      <point x="883" y="1299" type="qcurve" smooth="yes"/>
      <point x="697" y="1330"/>
      <point x="358" y="1150"/>
      <point x="289" y="864" type="qcurve" smooth="yes"/>
      <point x="224" y="594"/>
      <point x="383" y="237"/>
      <point x="579" y="207" type="qcurve" smooth="yes"/>
      <point x="770" y="178"/>
      <point x="1055" y="301"/>
      <point x="1145" y="437" type="qcurve"/>
      <point x="1169" y="423" type="line"/>
      <point x="1192" y="348" type="line"/>
      <point x="1068" y="170"/>
      <point x="732" y="46"/>
      <point x="530" y="70" type="qcurve" smooth="yes"/>
      <point x="262" y="102"/>
      <point x="25" y="565"/>
    </contour>
  </outline>
</glyph>
<glyph name="franc" format="1">
  <advance width="1060"/>
  <unicode hex="20A3"/>
  <outline>
    <contour>
      <point x="6" y="331" type="line"/>
      <point x="46" y="457" type="line"/>
      <point x="730" y="457" type="line"/>
      <point x="700" y="331" type="line"/>
    </contour>
    <contour>
      <point x="-46" y="0" type="line"/>
      <point x="-27" y="100" type="line"/>
      <point x="160" y="127" type="line"/>
      <point x="283" y="760" type="line"/>
      <point x="396" y="1362" type="line"/>
      <point x="213" y="1386" type="line"/>
      <point x="226" y="1500" type="line"/>
      <point x="1136" y="1500" type="line"/>
      <point x="1069" y="1174" type="line"/>
      <point x="969" y="1174" type="line"/>
      <point x="982" y="1382" type="line"/>
      <point x="598" y="1392" type="line"/>
      <point x="562" y="1372" type="line"/>
      <point x="443" y="760" type="line"/>
      <point x="323" y="122" type="line"/>
      <point x="523" y="100" type="line"/>
      <point x="504" y="0" type="line"/>
    </contour>
    <contour>
      <point x="394" y="792" type="line"/>
      <point x="414" y="894" type="line"/>
      <point x="780" y="901" type="line"/>
      <point x="835" y="1051" type="line"/>
      <point x="935" y="1051" type="line"/>
      <point x="844" y="585" type="line"/>
      <point x="744" y="585" type="line"/>
      <point x="757" y="785" type="line"/>
    </contour>
  </outline>
</glyph>
<glyph name="dong" format="1">
  <advance width="1207"/>
  <unicode hex="20AB"/>
  <outline>
    <contour>
      <point x="5" y="-266" type="line"/>
      <point x="25" y="-124" type="line"/>
      <point x="446" y="-128" type="line"/>
      <point x="897" y="-124" type="line"/>
      <point x="877" y="-266" type="line"/>
      <point x="427" y="-262" type="line"/>
    </contour>
    <contour>
      <point x="496" y="1122" type="line"/>
      <point x="527" y="1247" type="line"/>
      <point x="944" y="1244" type="line"/>
      <point x="1160" y="1247" type="line"/>
      <point x="1130" y="1122" type="line"/>
      <point x="913" y="1126" type="line"/>
    </contour>
    <contour>
      <point x="54" y="248" type="qcurve" smooth="yes"/>
      <point x="54" y="548"/>
      <point x="497" y="987"/>
      <point x="780" y="987" type="qcurve" smooth="yes"/>
      <point x="812" y="987" type="line"/>
      <point x="874" y="1336" type="line"/>
      <point x="770" y="1428" type="line"/>
      <point x="798" y="1500" type="line"/>
      <point x="979" y="1534" type="line"/>
      <point x="1066" y="1464" type="line"/>
      <point x="872" y="469" type="line"/>
      <point x="823" y="133" type="line"/>
      <point x="908" y="133" type="line"/>
      <point x="908" y="44" type="line"/>
      <point x="681" y="-16" type="line"/>
      <point x="644" y="65" type="line"/>
      <point x="651" y="171" type="line"/>
      <point x="586" y="96"/>
      <point x="346" y="-10"/>
      <point x="275" y="-10" type="qcurve" smooth="yes"/>
      <point x="158" y="-10"/>
      <point x="54" y="139"/>
    </contour>
    <contour>
      <point x="223" y="300" type="qcurve" smooth="yes"/>
      <point x="223" y="225"/>
      <point x="283" y="127"/>
      <point x="352" y="127" type="qcurve" smooth="yes"/>
      <point x="470" y="127"/>
      <point x="694" y="313"/>
      <point x="727" y="491" type="qcurve" smooth="yes"/>
      <point x="781" y="771" type="line"/>
      <point x="778" y="811"/>
      <point x="712" y="837"/>
      <point x="671" y="837" type="qcurve" smooth="yes"/>
      <point x="472" y="837"/>
      <point x="223" y="519"/>
    </contour>
  </outline>
</glyph>
<glyph name="guarani" format="1">
  <advance width="1376"/>
  <unicode hex="20B2"/>
  <outline>
    <contour>
      <point x="422" y="-122" type="line"/>
      <point x="479" y="86" type="line"/>
      <point x="497" y="81" type="line"/>
      <point x="703" y="871" type="line"/>
      <point x="811" y="803" type="line"/>
      <point x="618" y="54" type="line"/>
      <point x="638" y="50" type="line"/>
      <point x="595" y="-109" type="line"/>
    </contour>
    <contour>
      <point x="874" y="1618" type="line"/>
      <point x="1045" y="1618" type="line"/>
      <point x="992" y="1424" type="line"/>
      <point x="971" y="1428" type="line"/>
      <point x="811" y="803" type="line"/>
      <point x="703" y="871" type="line"/>
      <point x="851" y="1455" type="line"/>
      <point x="831" y="1460" type="line"/>
    </contour>
    <contour>
      <point x="117" y="839" type="qcurve" smooth="yes"/>
      <point x="204" y="1165"/>
      <point x="703" y="1575"/>
      <point x="976" y="1533" type="qcurve" smooth="yes"/>
      <point x="1041" y="1523"/>
      <point x="1134" y="1502"/>
      <point x="1180" y="1482" type="qcurve"/>
      <point x="1221" y="1461" type="line"/>
      <point x="1263" y="1440" type="line"/>
      <point x="1201" y="1096" type="line"/>
      <point x="1093" y="1096" type="line"/>
      <point x="1102" y="1299" type="line"/>
      <point x="1066" y="1358"/>
      <point x="965" y="1406"/>
      <point x="913" y="1414" type="qcurve" smooth="yes"/>
      <point x="692" y="1448"/>
      <point x="381" y="1151"/>
      <point x="304" y="842" type="qcurve" smooth="yes"/>
      <point x="231" y="552"/>
      <point x="370" y="175"/>
      <point x="544" y="151" type="qcurve" smooth="yes"/>
      <point x="678" y="133"/>
      <point x="897" y="174"/>
      <point x="997" y="243" type="qcurve"/>
      <point x="1070" y="606" type="line"/>
      <point x="921" y="631" type="line"/>
      <point x="943" y="732" type="line"/>
      <point x="1343" y="732" type="line"/>
      <point x="1329" y="630" type="line"/>
      <point x="1229" y="605" type="line"/>
      <point x="1149" y="182" type="line"/>
      <point x="1104" y="152" type="line"/>
      <point x="984" y="92"/>
      <point x="641" y="-7"/>
      <point x="495" y="14" type="qcurve" smooth="yes"/>
      <point x="248" y="49"/>
      <point x="32" y="523"/>
    </contour>
  </outline>
</glyph>
<glyph name="rupeeIndian" format="1">
  <advance width="1120"/>
  <unicode hex="20B9"/>
  <outline>
    <contour>
      <point x="830" y="1140" type="line"/>
      <point x="830" y="1155" type="line"/>
      <point x="1121" y="1165" type="line"/>
      <point x="1081" y="1024" type="line"/>
      <point x="800" y="1014" type="line"/>
      <point x="800" y="1028" type="line"/>
      <point x="112" y="1025" type="line"/>
      <point x="143" y="1164" type="line"/>
    </contour>
    <contour>
      <point x="455" y="751" type="line"/>
      <point x="602" y="810" type="line"/>
      <point x="615" y="708" type="line" smooth="yes"/>
      <point x="640" y="514"/>
      <point x="781" y="120"/>
      <point x="968" y="89" type="qcurve"/>
      <point x="939" y="-10" type="line"/>
      <point x="863" y="-10" type="line" smooth="yes"/>
      <point x="663" y="-10"/>
      <point x="490" y="437"/>
      <point x="464" y="671" type="qcurve" smooth="yes"/>
    </contour>
    <contour>
      <point x="474" y="736" type="qcurve" smooth="yes"/>
      <point x="413" y="736"/>
      <point x="208" y="720"/>
      <point x="157" y="695" type="qcurve"/>
      <point x="133" y="808" type="line"/>
      <point x="174" y="842" type="line"/>
      <point x="426" y="845" type="line" smooth="yes"/>
      <point x="585" y="847"/>
      <point x="721" y="967"/>
      <point x="747" y="1106" type="qcurve" smooth="yes"/>
      <point x="769" y="1222"/>
      <point x="675" y="1390"/>
      <point x="551" y="1390" type="qcurve" smooth="yes"/>
      <point x="447" y="1390"/>
      <point x="216" y="1380"/>
      <point x="62" y="1372" type="qcurve"/>
      <point x="123" y="1514" type="line"/>
      <point x="340" y="1499"/>
      <point x="639" y="1487"/>
      <point x="654" y="1485" type="qcurve"/>
      <point x="1212" y="1517" type="line"/>
      <point x="1172" y="1355" type="line"/>
      <point x="1083" y="1360"/>
      <point x="943" y="1369"/>
      <point x="883" y="1373" type="qcurve"/>
      <point x="921" y="1324"/>
      <point x="947" y="1190"/>
      <point x="931" y="1112" type="qcurve" smooth="yes"/>
      <point x="897" y="943"/>
      <point x="611" y="736"/>
    </contour>
  </outline>
</glyph>
<glyph name="ruble" format="1">
  <advance width="1165"/>
  <unicode hex="20BD"/>
  <outline>
    <contour>
      <point x="-14" y="349" type="line"/>
      <point x="12" y="445" type="line"/>
      <point x="740" y="445" type="line"/>
      <point x="709" y="309" type="line"/>
    </contour>
    <contour>
      <point x="-51" y="0" type="line"/>
      <point x="-52" y="100" type="line"/>
      <point x="145" y="127" type="line"/>
      <point x="267" y="754" type="line"/>
      <point x="372" y="1362" type="line"/>
      <point x="189" y="1386" type="line"/>
      <point x="202" y="1500" type="line"/>
      <point x="774" y="1500" type="line" smooth="yes"/>
      <point x="991" y="1500"/>
      <point x="1195" y="1237"/>
      <point x="1153" y="1025" type="qcurve" smooth="yes"/>
      <point x="1113" y="824"/>
      <point x="808" y="589"/>
      <point x="609" y="589" type="qcurve" smooth="yes"/>
      <point x="510" y="589"/>
      <point x="188" y="629"/>
      <point x="65" y="660" type="qcurve"/>
      <point x="94" y="761" type="line"/>
      <point x="224" y="731"/>
      <point x="502" y="697"/>
      <point x="595" y="697" type="qcurve" smooth="yes"/>
      <point x="750" y="697"/>
      <point x="947" y="877"/>
      <point x="979" y="1046" type="qcurve" smooth="yes"/>
      <point x="1010" y="1201"/>
      <point x="889" y="1382"/>
      <point x="744" y="1382" type="qcurve" smooth="yes"/>
      <point x="559" y="1382" type="line"/>
      <point x="533" y="1360" type="line"/>
      <point x="429" y="764" type="line"/>
      <point x="308" y="122" type="line"/>
      <point x="508" y="100" type="line"/>
      <point x="499" y="0" type="line"/>
    </contour>
  </outline>
</glyph>
<glyph name="engn" format="1">
  <advance width="1173"/>
  <outline>
    <contour>
      <point x="158" y="-23" type="line"/>
      <point x="116" y="56" type="line"/>
      <point x="219" y="527" type="line"/>
      <point x="271" y="822" type="line"/>
      <point x="129" y="818" type="line"/>
      <point x="131" y="915" type="line"/>
      <point x="350" y="1001" type="line"/>
      <point x="396" y="1001" type="line"/>
      <point x="429" y="736" type="line"/>
      <point x="396" y="588" type="line"/>
      <point x="291" y="87" type="line"/>
      <point x="322" y="4" type="line"/>
    </contour>
    <contour>
      <point x="348" y="720" type="line"/>
      <point x="413" y="819"/>
      <point x="714" y="1021"/>
      <point x="832" y="1021" type="qcurve" smooth="yes"/>
      <point x="941" y="1021"/>
      <point x="1074" y="878"/>
      <point x="1046" y="742" type="qcurve" smooth="yes"/>
      <point x="894" y="0" type="line"/>
      <point x="734" y="0" type="line"/>
      <point x="876" y="702" type="line" smooth="yes"/>
      <point x="893" y="785"/>
      <point x="849" y="877"/>
      <point x="772" y="877" type="qcurve" smooth="yes"/>
      <point x="674" y="877"/>
      <point x="426" y="700"/>
      <point x="369" y="630" type="qcurve"/>
    </contour>
  </outline>
</glyph>
